<svg id="svg" xmlns="http://www.w3.org/2000/svg" xmlns:xlink="http://www.w3.org/1999/xlink" width="400" height="459.375" viewBox="0, 0, 400,459.375"><g id="svgg"><path id="path0" d="M124.123 62.382 C 79.384 75.984,49.476 85.582,48.973 86.498 C 46.912 90.254,39.264 132.271,37.398 150.094 C 25.674 262.067,93.525 380.975,192.410 421.752 L 199.839 424.816 209.699 420.375 C 237.457 407.874,257.932 393.306,282.865 368.318 C 336.991 314.072,361.801 253.577,361.932 175.521 C 361.984 144.729,361.435 139.507,354.547 105.208 C 350.629 85.695,350.356 85.090,344.792 83.547 C 342.786 82.991,328.490 78.696,313.021 74.002 C 281.938 64.570,237.936 51.253,214.462 44.175 C 206.089 41.649,199.057 39.629,198.837 39.686 C 198.617 39.742,164.996 49.955,124.123 62.382 M265.586 80.342 C 301.987 91.301,332.329 100.793,333.012 101.436 C 333.695 102.078,335.461 109.167,336.937 117.188 C 354.473 212.509,331.158 293.006,267.708 356.204 L 256.771 367.098 255.491 343.294 C 254.788 330.202,253.979 319.257,253.695 318.973 C 253.411 318.689,228.440 329.515,198.204 343.032 L 143.229 367.607 129.166 353.335 C 80.024 303.461,56.255 244.579,56.251 172.710 C 56.250 153.549,62.255 108.217,65.592 102.194 C 66.039 101.387,86.914 94.526,112.625 86.735 C 138.051 79.031,167.760 70.003,178.646 66.672 C 189.531 63.341,198.654 60.571,198.919 60.516 C 199.184 60.461,229.184 69.383,265.586 80.342 M176.302 89.139 L 156.250 101.140 156.250 105.258 C 156.250 109.269,156.344 109.375,159.896 109.375 L 163.542 109.375 163.542 119.792 L 163.542 130.208 153.646 130.208 L 143.750 130.208 143.750 147.396 L 143.750 164.583 148.438 164.583 C 151.016 164.583,153.120 164.935,153.113 165.365 C 153.106 165.794,152.411 178.771,151.569 194.202 C 149.922 224.357,149.883 223.756,153.381 222.232 C 154.672 221.669,176.290 212.101,201.421 200.969 L 247.112 180.729 246.505 172.656 L 245.899 164.583 250.553 164.583 L 255.208 164.583 255.208 147.396 L 255.208 130.208 245.313 130.208 L 235.417 130.208 235.417 119.792 L 235.417 109.375 239.063 109.375 C 243.321 109.375,244.877 101.055,240.904 99.530 C 239.911 99.149,230.855 93.943,220.780 87.961 C 197.919 74.386,201.091 74.302,176.302 89.139 M198.438 248.059 C 171.510 260.077,148.957 270.470,148.318 271.153 C 147.328 272.213,144.314 319.661,145.181 320.529 C 145.372 320.720,250.459 274.333,251.683 273.518 C 251.805 273.437,249.195 226.784,249.041 226.302 C 248.830 225.639,244.431 227.530,198.438 248.059 " stroke="none" fill="#FFFFFF" fill-rule="evenodd"></path></g></svg>